<?xml version="1.0" encoding="UTF-8" ?>
<!DOCTYPE svg PUBLIC "-//W3C//DTD SVG 1.1//EN" "http://www.w3.org/Graphics/SVG/1.1/DTD/svg11.dtd">
<svg width="502pt" height="152pt" viewBox="0 0 502 152" version="1.1" xmlns="http://www.w3.org/2000/svg">
<g id="#000000ff">
<path fill="#000000" opacity="1.00" d=" M 0.00 0.00 L 0.06 0.00 C 0.05 0.02 0.02 0.05 0.00 0.06 L 0.00 0.00 Z" />
<path fill="#000000" opacity="1.00" d=" M 303.60 0.00 L 305.16 0.00 C 305.30 48.06 305.03 96.12 305.02 144.17 C 287.38 151.34 267.66 153.53 248.92 150.09 C 237.45 147.33 226.63 140.91 219.58 131.33 C 213.86 123.00 210.19 113.12 209.93 102.96 C 209.16 90.72 210.20 77.95 215.80 66.84 C 220.42 56.38 229.43 47.95 240.22 44.14 C 253.90 38.52 269.23 40.41 283.23 43.76 C 283.44 30.98 283.11 18.20 283.32 5.43 C 290.15 3.87 296.84 1.81 303.60 0.00 M 247.42 62.34 C 240.07 67.24 234.68 75.73 234.51 84.70 C 233.16 94.10 233.20 103.86 235.99 113.00 C 238.47 119.24 242.48 125.25 248.48 128.57 C 258.82 135.03 271.95 134.15 283.21 130.84 C 283.27 123.56 282.93 116.28 283.62 109.02 C 283.77 93.31 283.44 77.60 283.69 61.89 C 272.00 58.55 258.63 56.23 247.42 62.34 Z" />
<path fill="#000000" opacity="1.00" d=" M 0.99 2.08 C 18.64 2.66 36.32 2.12 53.99 2.31 C 60.87 2.29 67.73 3.47 74.20 5.80 C 82.79 9.19 90.16 15.40 94.61 23.53 C 103.29 40.56 99.67 63.49 84.78 75.94 C 80.55 78.97 76.49 82.30 71.78 84.60 C 72.74 88.76 74.73 92.53 76.84 96.20 C 85.71 114.57 94.43 132.99 103.40 151.31 C 94.94 151.39 86.49 151.18 78.03 151.31 C 67.90 130.33 58.62 108.96 48.41 88.01 C 39.96 87.92 31.50 87.76 23.06 88.06 C 22.85 109.08 23.21 130.12 22.83 151.14 C 15.56 151.52 8.28 151.39 1.01 151.40 C 1.05 101.63 0.85 51.86 0.99 2.08 M 22.98 20.76 C 23.05 37.20 22.94 53.63 22.88 70.06 C 30.93 70.30 38.97 70.09 47.02 70.18 C 56.22 70.47 66.07 67.38 72.02 60.02 C 77.15 52.45 78.11 42.12 74.15 33.83 C 72.02 28.29 66.82 24.59 61.58 22.26 C 53.94 20.12 45.86 20.29 37.99 20.39 C 32.98 20.46 27.96 20.12 22.98 20.76 Z" />
<path fill="#000000" opacity="1.00" d=" M 476.44 7.38 C 483.21 -1.69 499.28 1.70 502.00 12.67 L 502.00 20.35 C 500.04 28.36 490.73 32.42 483.20 29.90 C 473.69 27.74 470.07 14.53 476.44 7.38 Z" />
<path fill="#000000" opacity="1.00" d=" M 136.99 42.08 C 148.94 39.61 162.00 39.46 173.25 44.74 C 181.91 48.20 188.26 55.69 192.32 63.87 C 197.61 76.67 199.91 90.62 198.90 104.44 C 173.85 104.77 148.79 104.26 123.73 104.70 C 123.66 111.80 126.40 118.73 130.83 124.21 C 137.12 129.80 145.45 133.58 153.98 133.17 C 161.11 133.21 168.35 133.30 175.27 131.31 C 181.74 130.17 187.61 127.04 194.02 125.67 C 194.00 131.37 194.00 137.07 193.99 142.77 C 176.37 151.85 155.58 153.43 136.31 149.66 C 124.80 146.65 113.94 139.63 107.78 129.26 C 103.94 123.52 102.50 116.64 100.91 110.03 C 99.44 104.47 100.09 98.67 99.94 92.99 C 99.64 84.67 101.97 76.56 104.82 68.84 C 110.27 55.30 122.79 45.18 136.99 42.08 M 136.27 62.29 C 127.77 67.55 123.75 77.82 123.47 87.49 C 141.69 87.68 159.92 87.57 178.14 87.49 C 178.71 77.83 174.96 67.72 166.88 62.03 C 157.57 56.68 145.55 57.04 136.27 62.29 Z" />
<path fill="#000000" opacity="1.00" d=" M 330.87 45.85 C 347.23 40.63 365.77 39.12 381.81 46.23 C 385.75 47.82 388.92 50.73 392.04 53.53 C 403.50 45.17 417.88 40.70 432.07 41.56 C 438.92 41.90 445.66 43.99 451.59 47.41 C 454.56 49.72 457.24 52.44 459.58 55.39 C 466.16 66.02 465.78 78.96 465.54 90.99 C 466.42 111.02 465.43 131.08 465.53 151.13 C 458.38 151.45 451.22 151.14 444.08 151.32 C 443.90 127.54 444.06 103.77 443.99 79.99 C 443.56 72.78 440.22 64.88 433.48 61.48 C 422.74 57.67 409.64 60.27 401.93 68.93 C 402.19 96.40 401.82 123.87 401.81 151.33 C 394.49 151.61 387.16 151.55 379.84 151.46 C 380.20 129.63 379.86 107.79 380.02 85.95 C 379.98 79.46 379.36 72.32 374.72 67.32 C 371.09 62.40 364.96 60.11 359.01 59.93 C 351.47 59.67 342.99 59.90 337.14 65.36 C 337.49 69.22 337.62 73.09 337.38 76.96 C 337.24 101.69 336.92 126.42 337.00 151.15 C 329.89 151.41 322.78 151.15 315.68 151.31 C 315.61 136.21 314.92 121.10 315.69 106.01 C 315.64 88.65 315.63 71.29 315.57 53.93 C 320.21 50.47 325.18 47.24 330.87 45.85 Z" />
<path fill="#000000" opacity="1.00" d=" M 477.00 47.36 C 484.20 47.34 491.41 47.23 498.61 47.35 C 498.33 81.91 498.94 116.45 498.14 151.00 C 491.12 151.02 484.11 151.10 477.10 151.14 C 477.06 116.55 476.69 81.95 477.00 47.36 Z" />
</g>
</svg>
